<?xml version="1.0" encoding="UTF-8" standalone="no"?>
<svg xmlns="http://www.w3.org/2000/svg" xmlns:xlink="http://www.w3.org/1999/xlink" xmlns:serif="http://www.serif.com/" width="100%" height="100%" viewBox="0 0 7309 903" version="1.1" xml:space="preserve" style="fill-rule:evenodd;clip-rule:evenodd;stroke-linejoin:round;stroke-miterlimit:2;">
    <g transform="matrix(1,0,0,1,-60.3338,-89.6017)">
        <g transform="matrix(4.16667,0,0,4.16667,0,0)">
            <g transform="matrix(1.18671,0,0,1.18671,1740.31,66.9143)">
                <path d="M0,-1.431L2.459,-1.431C5.28,-1.431 7.672,-2.439 7.672,-5.04C7.672,-6.893 6.305,-8.742 2.459,-8.742C1.363,-8.742 0.591,-8.657 0,-8.573L0,-1.431ZM0,10.26L-3.416,10.26L-3.416,-10.845C-1.616,-11.098 0.077,-11.35 2.627,-11.35C5.885,-11.35 8.001,-10.679 9.291,-9.751C10.564,-8.825 11.246,-7.395 11.246,-5.381C11.246,-2.607 9.365,-0.924 7.07,-0.252L7.07,-0.084C8.945,0.256 10.222,1.933 10.642,5.044C11.155,8.325 11.683,9.58 12.009,10.26L8.421,10.26C7.921,9.58 7.41,7.649 6.99,4.878C6.477,2.19 5.109,1.181 2.378,1.181L0,1.181L0,10.26ZM3.561,-16.728C-4.864,-16.728 -11.761,-9.58 -11.761,-0.758C-11.761,8.238 -4.864,15.299 3.654,15.299C12.18,15.388 18.999,8.238 18.999,-0.675C18.999,-9.58 12.18,-16.728 3.654,-16.728L3.561,-16.728ZM3.654,-19.671C14.135,-19.671 22.482,-11.263 22.482,-0.758C22.482,9.92 14.135,18.24 3.561,18.24C-6.899,18.24 -15.426,9.92 -15.426,-0.758C-15.426,-11.263 -6.899,-19.671 3.561,-19.671L3.654,-19.671Z" style="fill:rgb(59,70,157);fill-rule:nonzero;stroke:rgb(58,69,157);stroke-width:2.53px;"></path>
            </g>
        </g>
        <g transform="matrix(4.16667,0,0,4.16667,0,0)">
            <g transform="matrix(1,0,0,1,14.4805,143.405)">
                <path d="M0,-121.901L0,-46.121C9.271,-50.832 23.054,-57.89 40.66,-57.89C58.737,-57.89 77.729,-47.967 104.139,-25.375C127.702,-5.224 148.621,-0.938 173.181,-0.46C197.739,0 209.686,-5.644 216.64,-9.409L216.633,-121.901L0,-121.901Z" style="fill:rgb(59,70,157);fill-rule:nonzero;"></path>
            </g>
        </g>
        <g transform="matrix(4.16667,0,0,4.16667,0,0)">
            <g transform="matrix(1,0,0,1,187.661,180.6)">
                <path d="M0,-1.185C-24.56,-1.645 -45.479,-15.424 -69.042,-35.58C-95.452,-58.166 -114.443,-58.613 -132.521,-58.613C-150.127,-58.613 -163.91,-51.557 -173.181,-46.845L-173.181,57.428L43.353,57.428L43.452,-10.127C36.505,-6.362 24.552,-0.711 0,-1.185" style="fill:rgb(59,70,157);fill-rule:nonzero;"></path>
            </g>
        </g>
        <g transform="matrix(4.16667,0,0,4.16667,0,0)">
            <g transform="matrix(0.24,0,0,0.24,0,-0.72)">
                <g transform="matrix(1197.81,0,0,1197.81,1124,961)">
                    <path d="M0.04,-0.031C0.078,-0.011 0.157,0.011 0.238,0.011C0.435,0.011 0.526,-0.089 0.526,-0.205C0.526,-0.299 0.471,-0.364 0.35,-0.408C0.265,-0.44 0.229,-0.454 0.229,-0.488C0.229,-0.518 0.259,-0.538 0.314,-0.538C0.382,-0.538 0.432,-0.519 0.461,-0.506L0.499,-0.65C0.454,-0.67 0.397,-0.685 0.316,-0.685C0.146,-0.685 0.046,-0.593 0.046,-0.474C0.046,-0.374 0.121,-0.311 0.235,-0.271C0.311,-0.245 0.341,-0.226 0.341,-0.193C0.341,-0.159 0.311,-0.138 0.249,-0.138C0.182,-0.138 0.115,-0.159 0.074,-0.18L0.04,-0.031Z" style="fill:rgb(59,70,157);fill-rule:nonzero;"></path>
                </g>
                <g transform="matrix(1197.81,0,0,1197.81,1788.78,961)">
                    <path d="M0.077,-0.585L0.077,-0.492L0.016,-0.492L0.016,-0.36L0.077,-0.36L0.077,-0.188C0.077,-0.113 0.093,-0.064 0.123,-0.034C0.149,-0.008 0.193,0.011 0.246,0.011C0.292,0.011 0.332,0.004 0.353,-0.003L0.353,-0.14C0.338,-0.136 0.331,-0.136 0.31,-0.136C0.267,-0.136 0.253,-0.16 0.253,-0.219L0.253,-0.36L0.355,-0.36L0.355,-0.492L0.253,-0.492L0.253,-0.632L0.077,-0.585Z" style="fill:rgb(59,70,157);fill-rule:nonzero;"></path>
                </g>
                <g transform="matrix(1197.81,0,0,1197.81,2247.54,961)">
                    <path d="M0.056,-0L0.236,-0L0.236,-0.243C0.236,-0.255 0.237,-0.265 0.239,-0.274C0.248,-0.314 0.284,-0.336 0.337,-0.336C0.356,-0.336 0.37,-0.334 0.383,-0.331L0.383,-0.5C0.37,-0.503 0.363,-0.503 0.347,-0.503C0.305,-0.503 0.242,-0.478 0.216,-0.403L0.212,-0.403L0.206,-0.492L0.052,-0.492C0.054,-0.451 0.056,-0.404 0.056,-0.326L0.056,-0Z" style="fill:rgb(59,70,157);fill-rule:nonzero;"></path>
                </g>
                <g transform="matrix(1197.81,0,0,1197.81,2720.68,961)">
                    <path d="M0.506,-0.183C0.509,-0.195 0.513,-0.221 0.513,-0.251C0.513,-0.386 0.445,-0.503 0.286,-0.503C0.105,-0.503 0.031,-0.356 0.031,-0.241C0.031,-0.085 0.129,0.011 0.302,0.011C0.363,0.011 0.427,0.003 0.486,-0.021L0.463,-0.141C0.419,-0.127 0.375,-0.122 0.328,-0.122C0.265,-0.122 0.208,-0.144 0.202,-0.183L0.506,-0.183ZM0.2,-0.305C0.203,-0.336 0.224,-0.385 0.277,-0.385C0.334,-0.385 0.347,-0.333 0.347,-0.305L0.2,-0.305Z" style="fill:rgb(59,70,157);fill-rule:nonzero;"></path>
                </g>
                <g transform="matrix(1197.81,0,0,1197.81,3366.3,961)">
                    <path d="M0.493,-0.286C0.493,-0.409 0.434,-0.503 0.265,-0.503C0.163,-0.503 0.093,-0.475 0.061,-0.459L0.093,-0.344C0.125,-0.363 0.18,-0.381 0.232,-0.381C0.297,-0.381 0.312,-0.359 0.312,-0.339L0.312,-0.335C0.145,-0.334 0.027,-0.276 0.027,-0.144C0.027,-0.062 0.089,0.011 0.189,0.011C0.242,0.011 0.291,-0.004 0.326,-0.043L0.329,-0.043L0.339,-0L0.501,-0C0.495,-0.025 0.493,-0.071 0.493,-0.12L0.493,-0.286ZM0.318,-0.185C0.318,-0.176 0.318,-0.167 0.316,-0.159C0.308,-0.132 0.28,-0.114 0.254,-0.114C0.224,-0.114 0.203,-0.13 0.203,-0.161C0.203,-0.204 0.245,-0.225 0.318,-0.225L0.318,-0.185Z" style="fill:rgb(59,70,157);fill-rule:nonzero;"></path>
                </g>
                <g transform="matrix(1197.81,0,0,1197.81,4022.69,961)">
                    <path d="M0.056,-0L0.231,-0L0.231,-0.282C0.231,-0.294 0.231,-0.307 0.236,-0.318C0.243,-0.335 0.258,-0.359 0.291,-0.359C0.331,-0.359 0.348,-0.323 0.348,-0.268L0.348,-0L0.523,-0L0.523,-0.281C0.523,-0.291 0.524,-0.307 0.528,-0.317C0.536,-0.34 0.554,-0.359 0.583,-0.359C0.623,-0.359 0.641,-0.324 0.641,-0.263L0.641,-0L0.816,-0L0.816,-0.29C0.816,-0.426 0.755,-0.503 0.649,-0.503C0.616,-0.503 0.587,-0.496 0.562,-0.483C0.536,-0.47 0.514,-0.45 0.494,-0.425L0.492,-0.425C0.471,-0.474 0.422,-0.503 0.359,-0.503C0.275,-0.503 0.232,-0.455 0.214,-0.431L0.21,-0.431L0.203,-0.492L0.052,-0.492C0.054,-0.447 0.056,-0.39 0.056,-0.325L0.056,-0Z" style="fill:rgb(59,70,157);fill-rule:nonzero;"></path>
                </g>
                <g transform="matrix(1197.81,0,0,1197.81,5065.99,961)">
                    <path d="M0.056,-0.156C0.056,-0.095 0.054,-0.032 0.052,-0L0.204,-0L0.211,-0.063L0.213,-0.063C0.246,-0.008 0.301,0.011 0.353,0.011C0.467,0.011 0.579,-0.078 0.579,-0.256C0.581,-0.407 0.495,-0.503 0.378,-0.503C0.315,-0.503 0.266,-0.479 0.238,-0.442L0.236,-0.442L0.236,-0.71L0.056,-0.71L0.056,-0.156ZM0.236,-0.28C0.236,-0.288 0.237,-0.296 0.238,-0.304C0.244,-0.339 0.274,-0.365 0.309,-0.365C0.369,-0.365 0.396,-0.315 0.396,-0.248C0.396,-0.17 0.362,-0.13 0.309,-0.13C0.273,-0.13 0.245,-0.158 0.238,-0.189C0.237,-0.196 0.236,-0.205 0.236,-0.214L0.236,-0.28Z" style="fill:rgb(59,70,157);fill-rule:nonzero;"></path>
                </g>
                <g transform="matrix(1197.81,0,0,1197.81,5789.46,961)">
                    <path d="M0.302,-0.503C0.134,-0.503 0.031,-0.399 0.031,-0.243C0.031,-0.083 0.145,0.011 0.292,0.011C0.43,0.011 0.558,-0.072 0.558,-0.251C0.558,-0.399 0.456,-0.503 0.302,-0.503ZM0.296,-0.376C0.35,-0.376 0.372,-0.314 0.372,-0.246C0.372,-0.167 0.345,-0.116 0.297,-0.116C0.241,-0.116 0.217,-0.173 0.217,-0.246C0.217,-0.311 0.237,-0.376 0.296,-0.376Z" style="fill:rgb(59,70,157);fill-rule:nonzero;"></path>
                </g>
                <g transform="matrix(1197.81,0,0,1197.81,6443.46,961)">
                    <path d="M0.003,-0.492L0.164,-0.251L0.001,-0L0.198,-0L0.234,-0.079C0.243,-0.101 0.254,-0.124 0.265,-0.149L0.268,-0.149C0.277,-0.125 0.288,-0.102 0.3,-0.079L0.339,-0L0.543,-0L0.383,-0.259L0.542,-0.492L0.347,-0.492L0.314,-0.423C0.303,-0.399 0.293,-0.375 0.282,-0.349L0.279,-0.349C0.268,-0.372 0.256,-0.396 0.243,-0.42L0.204,-0.492L0.003,-0.492Z" style="fill:rgb(59,70,157);fill-rule:nonzero;"></path>
                </g>
            </g>
        </g>
    </g>
</svg>
